<?xml version="1.0" encoding="UTF-8"?>
<svg version="1.1" xmlns="http://www.w3.org/2000/svg" width="500" height="500">
<path d="M0 0 C165 0 330 0 500 0 C500 165 500 330 500 500 C335 500 170 500 0 500 C0 335 0 170 0 0 Z " fill="#000000" transform="translate(0,0)"/>
<path d="M0 0 C93.39 0 186.78 0 283 0 C283.12099405 74.76087739 283.12099405 74.76087739 283.14648438 106.00585938 C283.15235767 113.15714539 283.15841902 120.30843121 283.16479492 127.4597168 C283.16598179 128.80409444 283.16598179 128.80409444 283.16719264 130.17563123 C283.18022751 144.62998524 283.20387176 159.08430332 283.23145839 173.53863605 C283.25954934 188.38140947 283.27618405 203.22416411 283.28226548 218.06696302 C283.28637428 227.21992568 283.29933438 236.3727868 283.3237494 245.52571819 C283.33965217 251.80896314 283.34439011 258.09215587 283.34050413 264.37541946 C283.33858963 267.99625098 283.34144811 271.61690548 283.35761642 275.23770523 C283.37506566 279.17437803 283.36892653 283.11082404 283.36076355 287.04753113 C283.36950207 288.17694868 283.3782406 289.30636623 283.38724393 290.47000855 C283.27486225 310.61848774 275.84334827 329.38996538 261.75 343.75 C256.3382412 349.07649763 250.7245729 353.41026476 244 357 C243.1646875 357.45761719 242.329375 357.91523438 241.46875 358.38671875 C224.5146329 366.88931061 204.2057043 368.94135504 186.015625 363.453125 C166.17257695 356.69512739 150.39086676 343.52822341 140.625 325 C131.57631757 305.69785305 130.19714831 285.08971708 137.06640625 264.859375 C144.91751112 244.64860998 159.35240282 230.54018478 178.703125 221.40234375 C193.95045755 214.91680775 211.36463199 213.6974566 227.375 218.0625 C228.05022705 218.24184082 228.7254541 218.42118164 229.42114258 218.60595703 C236.64380386 220.78961261 242.07839696 224.27298298 249 228 C249.33 163.65 249.66 99.3 250 33 C178.39 33 106.78 33 33 33 C33.03480469 52.12324219 33.06960937 71.24648437 33.10546875 90.94921875 C33.12079577 103.05794352 33.13538002 115.16666233 33.14648438 127.27539062 C33.15235757 133.63712589 33.15841889 139.99886093 33.16479492 146.3605957 C33.16558617 147.15788261 33.16637741 147.95516952 33.16719264 148.77661663 C33.18022346 161.63078509 33.20386545 174.48491308 33.23145839 187.33905759 C33.25956066 200.54105271 33.27618643 213.74302673 33.28226548 226.94505054 C33.28637195 235.08460642 33.29931923 243.22404797 33.3237494 251.36356864 C33.33966619 256.95299711 33.34438698 262.54236689 33.34050413 268.13181635 C33.33859177 271.35166428 33.34308874 274.57127249 33.35761642 277.79109383 C33.46353515 302.48509818 33.46353515 302.48509818 30 313 C29.62359375 314.22976563 29.2471875 315.45953125 28.859375 316.7265625 C22.18915574 334.15368464 10.56846895 348.15536143 -6 357 C-6.8353125 357.45761719 -7.670625 357.91523438 -8.53125 358.38671875 C-25.4853671 366.88931061 -45.7942957 368.94135504 -63.984375 363.453125 C-83.82742305 356.69512739 -99.60913324 343.52822341 -109.375 325 C-118.36287279 305.77664601 -119.74062891 284.94852346 -112.93359375 264.8515625 C-105.06434772 244.64603969 -90.65268997 230.54258971 -71.296875 221.40234375 C-56.04954245 214.91680775 -38.63536801 213.6974566 -22.625 218.0625 C-21.94977295 218.24184082 -21.2745459 218.42118164 -20.57885742 218.60595703 C-13.35619614 220.78961261 -7.92160304 224.27298298 -1 228 C-0.67 152.76 -0.34 77.52 0 0 Z " fill="#FEDD58" transform="translate(167,84)"/>
</svg>
